<?xml version="1.0" encoding="UTF-8" standalone="no"?>
<!DOCTYPE svg PUBLIC "-//W3C//DTD SVG 20010904//EN"
              "http://www.w3.org/TR/2001/REC-SVG-20010904/DTD/svg10.dtd">

<svg xmlns="http://www.w3.org/2000/svg"
     width="1.41667in" height="1.41667in"
     viewBox="0 0 425 425">
  <path id="Selection"
        fill="none" stroke="black" stroke-width="1"
        d="M 0.00,0.00
           C 0.00,0.00 0.00,425.00 0.00,425.00
             0.00,425.00 425.00,425.00 425.00,425.00
             425.00,425.00 425.00,0.00 425.00,0.00
             425.00,0.00 0.00,0.00 0.00,0.00 Z
           M 389.00,152.80
           C 389.00,152.80 387.87,167.00 387.87,167.00
             387.87,167.00 387.87,192.00 387.87,192.00
             387.87,192.00 395.99,255.00 395.99,255.00
             396.13,261.47 395.25,272.13 389.89,276.43
             383.96,281.18 373.48,278.69 370.02,271.98
             368.81,269.63 369.01,266.59 369.04,264.00
             369.04,264.00 369.04,249.00 369.04,249.00
             369.04,249.00 370.00,237.00 370.00,237.00
             370.00,237.00 370.00,211.00 370.00,211.00
             370.00,208.11 370.18,203.69 368.69,201.16
             367.58,199.27 365.72,198.24 363.99,200.37
             362.26,203.00 363.24,208.98 363.99,212.00
             363.99,212.00 367.96,236.00 367.96,236.00
             368.64,253.71 351.88,252.86 346.19,248.35
             341.22,244.41 340.88,238.82 341.01,233.00
             341.01,233.00 345.43,194.00 345.43,194.00
             345.43,191.23 344.52,180.63 339.41,183.17
             336.95,184.39 337.04,188.68 337.05,191.00
             337.05,191.00 337.05,203.00 337.05,203.00
             337.05,203.00 338.00,213.00 338.00,213.00
             338.00,213.00 339.07,236.00 339.07,236.00
             339.16,238.84 340.10,242.34 339.07,244.96
             336.11,252.87 323.90,254.42 319.68,246.90
             314.03,236.80 319.64,213.55 319.00,201.00
             313.80,204.11 313.82,211.46 314.04,217.00
             314.04,217.00 315.44,237.00 315.44,237.00
             317.00,246.92 319.74,254.10 319.99,265.00
             320.11,270.47 319.37,280.64 315.58,284.77
             309.77,291.11 297.33,287.94 294.04,277.00
             291.26,267.73 294.99,258.39 295.00,249.00
             295.00,249.00 296.00,226.00 296.00,226.00
             296.00,226.00 296.00,209.00 296.00,209.00
             285.54,213.77 287.37,211.59 277.00,210.00
             277.00,217.44 279.79,236.38 276.15,241.90
             271.67,248.66 263.30,247.69 258.56,241.90
             255.17,237.77 255.02,234.04 255.00,229.00
             254.96,219.64 257.25,210.25 255.00,201.00
             253.89,201.91 253.07,202.25 252.19,203.69
             251.55,205.47 252.04,218.99 252.19,222.00
             251.93,227.32 250.69,234.06 244.00,234.33
             242.22,234.41 238.88,233.42 237.08,233.00
             237.08,233.00 237.08,250.00 237.08,250.00
             237.84,257.01 239.28,265.26 236.52,272.00
             232.16,282.66 220.67,284.14 216.00,273.00
             213.20,266.30 213.87,255.13 214.72,248.00
             214.72,248.00 215.29,240.00 215.29,240.00
             215.29,240.00 219.00,210.00 219.00,210.00
             219.02,207.82 219.14,203.98 218.40,202.02
             217.06,198.46 213.54,195.45 210.42,199.24
             208.33,201.78 207.90,205.82 207.75,209.00
             207.51,213.97 208.18,222.00 208.78,227.00
             209.36,230.56 210.37,234.60 208.78,237.96
             205.58,244.13 196.02,246.52 190.42,239.89
             187.14,236.02 187.02,231.78 187.04,227.00
             187.04,227.00 187.04,215.00 187.04,215.00
             187.04,215.00 189.00,192.00 189.00,192.00
             177.82,195.66 179.89,201.49 180.00,211.00
             180.00,211.00 185.15,252.00 185.15,252.00
             185.40,256.58 186.81,262.60 185.15,267.00
             181.51,278.05 165.74,275.38 162.08,263.00
             159.80,254.79 161.99,246.34 162.08,238.00
             162.08,238.00 161.57,213.00 161.57,213.00
             161.57,204.98 162.18,206.93 161.00,198.00
             145.59,201.29 150.59,222.94 152.14,234.00
             152.60,237.40 153.61,241.63 152.14,244.90
             149.55,250.71 139.65,251.56 135.27,247.57
             132.38,244.93 131.57,240.69 131.00,237.00
             123.73,239.65 122.90,238.90 116.00,236.00
             116.03,247.43 119.08,258.76 120.92,270.00
             121.95,276.30 122.55,285.22 118.77,290.81
             114.25,297.51 102.37,296.29 97.92,287.00
             94.78,280.46 95.99,271.12 96.00,264.00
             96.01,256.66 95.67,253.42 97.00,246.00
             90.59,257.75 87.15,255.98 76.00,252.00
             72.35,262.66 62.34,263.28 55.53,254.95
             50.60,248.92 51.00,241.31 51.00,234.00
             48.90,233.72 44.87,233.23 43.02,232.44
             38.70,230.61 35.93,225.64 36.62,221.00
             37.94,212.05 47.81,205.15 48.00,191.00
             48.00,191.00 48.00,162.00 48.00,162.00
             48.00,159.70 47.62,155.59 49.60,154.02
             51.49,152.52 59.34,153.00 62.00,152.80
             62.00,152.80 86.00,152.80 86.00,152.80
             86.00,152.80 94.00,152.80 94.00,152.80
             94.00,152.80 125.00,152.80 125.00,152.80
             125.00,152.80 191.00,152.80 191.00,152.80
             191.00,152.80 268.00,152.80 268.00,152.80
             268.00,152.80 280.00,152.80 280.00,152.80
             280.00,152.80 289.00,152.80 289.00,152.80
             289.00,152.80 299.00,152.80 299.00,152.80
             299.00,152.80 306.00,152.80 306.00,152.80
             306.00,152.80 313.00,152.80 313.00,152.80
             313.00,152.80 389.00,152.80 389.00,152.80 Z" />
</svg>
